<?xml version="1.0" encoding="UTF-8"?>
<svg width="1222px" height="275px" viewBox="0 0 1222 275" version="1.1" xmlns="http://www.w3.org/2000/svg" xmlns:xlink="http://www.w3.org/1999/xlink">
    <!-- Generator: Sketch 53 (72520) - https://sketchapp.com -->
    <title>Logo Color</title>
    <desc>Created with Sketch.</desc>
    <defs>
        <path d="M503.537153,142.58952 L500.043108,155.689956 L530.397618,155.689956 L527.121951,142.58952 C525.083749,135.457024 523.118368,127.887959 521.225752,119.882096 C519.333135,111.876234 517.440546,104.161609 515.54793,96.7379913 L514.674419,96.7379913 C512.927388,104.30717 511.143987,112.058184 509.324163,119.991266 C507.50434,127.924348 505.575355,135.457024 503.537153,142.58952 Z M452,214.641921 L496.549064,72.2838428 L535.201929,72.2838428 L579.750993,214.641921 L545.684061,214.641921 L536.948951,180.799127 L493.491775,180.799127 L484.756665,214.641921 L452,214.641921 Z M578.98667,214.641921 L578.98667,106.344978 L605.192002,106.344978 L607.37578,120.100437 L608.249291,120.100437 C612.90804,115.733603 618.00347,111.91268 623.535735,108.637555 C629.067999,105.362429 635.546475,103.724891 642.971356,103.724891 C654.763814,103.724891 663.316858,107.582203 668.630743,115.296943 C673.944629,123.011683 676.601531,133.710266 676.601531,147.393013 L676.601531,214.641921 L644.5,214.641921 L644.5,151.541485 C644.5,143.681183 643.444518,138.295502 641.333522,135.384279 C639.222527,132.473057 635.837705,131.017467 631.178956,131.017467 C627.102551,131.017467 623.608542,131.927211 620.696824,133.746725 C617.785106,135.566239 614.582264,138.14991 611.088202,141.497817 L611.088202,214.641921 L578.98667,214.641921 Z M717.547362,217.262009 C712.597442,217.262009 708.120742,216.425045 704.11713,214.751092 C700.113518,213.077139 696.728696,210.748195 693.962564,207.764192 C691.196432,204.780189 689.049072,201.323164 687.52042,197.393013 C685.991768,193.462862 685.227453,189.168873 685.227453,184.510917 C685.227453,173.157148 690.031716,164.278052 699.640386,157.873362 C709.249055,151.468672 724.753722,147.174683 746.15485,144.991266 C745.863678,140.187749 744.444237,136.366826 741.896483,133.528384 C739.34873,130.689942 735.090406,129.270742 729.121384,129.270742 C724.462635,129.270742 719.840352,130.144096 715.254396,131.89083 C710.66844,133.637563 705.754989,136.039286 700.513897,139.09607 L688.939875,117.917031 C695.927999,113.695758 703.243581,110.275122 710.886841,107.655022 C718.530101,105.034921 726.646393,103.724891 735.235961,103.724891 C749.212208,103.724891 759.876216,107.691372 767.228304,115.624454 C774.580392,123.557536 778.256381,135.893657 778.256381,152.633188 L778.256381,214.641921 L752.051049,214.641921 L749.867272,203.50655 L748.993761,203.50655 C744.335012,207.582262 739.457957,210.893728 734.36245,213.441048 C729.266944,215.988368 723.66197,217.262009 717.547362,217.262009 Z M728.466251,192.371179 C732.105898,192.371179 735.235948,191.570605 737.856495,189.969432 C740.477041,188.36826 743.243132,186.112096 746.15485,183.200873 L746.15485,164.20524 C734.799149,165.806413 726.937628,168.135356 722.570051,171.19214 C718.202474,174.248924 716.018718,177.887897 716.018718,182.10917 C716.018718,185.602638 717.146992,188.186309 719.403573,189.860262 C721.660155,191.534215 724.681017,192.371179 728.466251,192.371179 Z M821.167612,217.262009 C815.635348,217.262009 810.976669,216.388655 807.191435,214.641921 C803.406202,212.895188 800.385339,210.457075 798.128758,207.327511 C795.872176,204.197947 794.234359,200.413414 793.215258,195.973799 C792.196157,191.534184 791.686614,186.54879 791.686614,181.017467 L791.686614,61.5851528 L823.788145,61.5851528 L823.788145,182.327511 C823.788145,185.675417 824.406876,188.00436 825.644356,189.31441 C826.881836,190.624461 828.155694,191.279476 829.465967,191.279476 L831.322178,191.279476 C831.831729,191.279476 832.523251,191.133917 833.396767,190.842795 L837.327567,214.641921 C835.580536,215.369727 833.360384,215.988353 830.667045,216.497817 C827.973706,217.007281 824.80726,217.262009 821.167612,217.262009 Z M852.504821,257 C849.156346,257 846.317463,256.818051 843.988088,256.454148 C841.658714,256.090246 839.402166,255.5444 837.218378,254.816594 L842.8962,230.362445 C843.915301,230.653568 845.079971,230.944686 846.390244,231.235808 C847.700517,231.52693 848.937979,231.672489 850.102666,231.672489 C855.489344,231.672489 859.63848,230.362459 862.550199,227.742358 C865.461917,225.122258 867.645672,221.701622 869.101531,217.480349 L870.630176,211.803493 L828.920023,106.344978 L861.239932,106.344978 L876.744753,152.851528 C878.346198,157.800607 879.802035,162.822391 881.112309,167.917031 C882.422582,173.01167 883.805627,178.251793 885.261486,183.637555 L886.134997,183.637555 C887.299684,178.542915 888.50075,173.411962 889.73823,168.244541 C890.97571,163.077121 892.249568,157.946168 893.559841,152.851528 L906.662507,106.344978 L937.453772,106.344978 L899.892796,215.733624 C897.27225,222.574998 894.542555,228.579305 891.70363,233.746725 C888.864705,238.914145 885.589071,243.208134 881.876631,246.628821 C878.16419,250.049508 873.942262,252.633179 869.21072,254.379913 C864.479178,256.126646 858.910601,257 852.504821,257 Z M982.330403,217.262009 C975.633451,217.262009 969.91929,216.243096 965.187748,214.20524 C960.456206,212.167384 956.598238,209.328985 953.613727,205.689956 C950.629216,202.050928 948.44546,197.64777 947.062394,192.480349 C945.679328,187.312929 944.987805,181.59974 944.987805,175.340611 L944.987805,131.454148 L930.138117,131.454148 L930.138117,107.655022 L946.734827,106.344978 L950.447249,77.5240175 L977.089336,77.5240175 L977.089336,106.344978 L1003.07629,106.344978 L1003.07629,131.454148 L977.089336,131.454148 L977.089336,174.90393 C977.089336,181.017498 978.363194,185.420656 980.910947,188.113537 C983.458701,190.806418 986.843522,192.152838 991.065513,192.152838 C992.812544,192.152838 994.595945,191.9345 996.415769,191.497817 C998.235592,191.061133 999.873409,190.551677 1001.32927,189.969432 L1006.35196,213.331878 C1003.44024,214.205245 1000.01902,215.078598 996.088202,215.951965 C992.157383,216.825332 987.571495,217.262009 982.330403,217.262009 Z M1010.61032,214.641921 L1010.61032,106.344978 L1042.71185,106.344978 L1042.71185,214.641921 L1010.61032,214.641921 Z M1026.5519,90.4061135 C1021.16522,90.4061135 1016.72492,88.8413548 1013.23086,85.7117904 C1009.73679,82.582226 1007.98979,78.5429651 1007.98979,73.5938865 C1007.98979,68.6448079 1009.73679,64.6419367 1013.23086,61.5851528 C1016.72492,58.528369 1021.16522,57 1026.5519,57 C1032.08416,57 1036.56086,58.528369 1039.98213,61.5851528 C1043.4034,64.6419367 1045.11401,68.6448079 1045.11401,73.5938865 C1045.11401,78.5429651 1043.4034,82.582226 1039.98213,85.7117904 C1036.56086,88.8413548 1032.08416,90.4061135 1026.5519,90.4061135 Z M1104.40357,217.262009 C1096.83311,217.262009 1089.80869,215.988368 1083.33012,213.441048 C1076.85155,210.893728 1071.21018,207.218365 1066.40584,202.414847 C1061.60151,197.61133 1057.81633,191.679802 1055.0502,184.620087 C1052.28407,177.560372 1050.90102,169.51824 1050.90102,160.49345 C1050.90102,151.468659 1052.42965,143.426527 1055.48695,136.366812 C1058.54426,129.307097 1062.657,123.37557 1067.8253,118.572052 C1072.9936,113.768535 1078.99893,110.093171 1085.84146,107.545852 C1092.684,104.998532 1099.8176,103.724891 1107.24248,103.724891 C1113.93944,103.724891 1119.87197,104.816583 1125.04027,107 C1130.20857,109.183417 1134.83086,111.949037 1138.90726,115.296943 L1123.83919,136.039301 C1118.74369,131.818028 1113.86663,129.707424 1109.20788,129.707424 C1101.34625,129.707424 1095.15894,132.473044 1090.64577,138.004367 C1086.13261,143.53569 1083.87606,151.031976 1083.87606,160.49345 C1083.87606,169.954924 1086.16901,177.45121 1090.75496,182.982533 C1095.34092,188.513856 1101.12787,191.279476 1108.116,191.279476 C1111.61006,191.279476 1114.99488,190.515291 1118.27056,188.9869 C1121.54624,187.458508 1124.6399,185.602631 1127.55162,183.419214 L1140.21753,204.379913 C1134.83085,209.037869 1129.0075,212.349335 1122.74731,214.31441 C1116.48711,216.279486 1110.3726,217.262009 1104.40357,217.262009 Z M1177.45094,217.262009 C1170.31723,217.262009 1163.00164,215.879199 1155.50397,213.113537 C1148.0063,210.347876 1141.49142,206.708902 1135.95916,202.196507 L1150.37209,182.10917 C1155.32201,185.89376 1160.05348,188.732159 1164.56665,190.624454 C1169.07981,192.516749 1173.6657,193.462882 1178.32445,193.462882 C1183.12878,193.462882 1186.62279,192.662308 1188.80658,191.061135 C1190.99037,189.459963 1192.08225,187.203799 1192.08225,184.292576 C1192.08225,182.545843 1191.46352,180.981084 1190.22604,179.598253 C1188.98855,178.215422 1187.31434,176.941782 1185.20335,175.777293 C1183.09235,174.612803 1180.72662,173.557501 1178.10607,172.611354 C1175.48552,171.665206 1172.79222,170.609904 1170.02609,169.445415 C1166.67762,168.135365 1163.32919,166.606996 1159.98071,164.860262 C1156.63224,163.113528 1153.57498,160.966534 1150.80885,158.419214 C1148.04272,155.871894 1145.78617,152.887936 1144.03914,149.467249 C1142.29211,146.046562 1141.4186,142.080081 1141.4186,137.567686 C1141.4186,132.618607 1142.40129,128.0335 1144.3667,123.812227 C1146.33211,119.590954 1149.1346,116.02476 1152.77425,113.113537 C1156.4139,110.202314 1160.78141,107.909761 1165.87691,106.235808 C1170.97242,104.561855 1176.65019,103.724891 1182.91038,103.724891 C1191.20878,103.724891 1198.48796,105.144091 1204.74816,107.982533 C1211.00835,110.820975 1216.46774,113.986882 1221.12649,117.480349 L1206.71356,136.694323 C1202.78274,133.7831 1198.92477,131.526937 1195.13953,129.925764 C1191.3543,128.324592 1187.56912,127.524017 1183.78389,127.524017 C1175.63108,127.524017 1171.55474,130.362417 1171.55474,136.039301 C1171.55474,137.786035 1172.13707,139.278014 1173.30176,140.515284 C1174.46645,141.752553 1176.03147,142.880635 1177.99688,143.899563 C1179.96229,144.918491 1182.21884,145.901014 1184.76659,146.847162 C1187.31434,147.793309 1189.97125,148.775832 1192.73738,149.79476 C1196.23144,151.10481 1199.68905,152.596789 1203.11032,154.270742 C1206.53159,155.944695 1209.66164,158.01891 1212.50057,160.49345 C1215.33949,162.967989 1217.63244,165.988337 1219.37947,169.554585 C1221.1265,173.120833 1222,177.378432 1222,182.327511 C1222,187.27659 1221.05371,191.861697 1219.16109,196.082969 C1217.26847,200.304242 1214.42959,203.979606 1210.64436,207.10917 C1206.85912,210.238735 1202.20044,212.713237 1196.66818,214.532751 C1191.13591,216.352265 1184.73023,217.262009 1177.45094,217.262009 Z" id="path-1"></path>
    </defs>
    <g id="Logo-Color" stroke="none" stroke-width="1" fill="none" fill-rule="evenodd">
        <polygon id="Rectangle-Copy-3" fill="#666100" fill-rule="nonzero" points="353.103411 73 408 73 364.780557 215 308 215"></polygon>
        <polygon id="Rectangle-Copy-4" fill="#BFB600" fill-rule="nonzero" points="387.225101 73 437 73 395.617012 215 342 215"></polygon>
        <polygon id="Rectangle-Copy-5" fill="#EDE100" fill-rule="nonzero" points="420.741534 73 455 73 410.258466 215 376 215"></polygon>
        <g id="Analytics" fill-rule="nonzero" fill="#CCC200">
            <use xlink:href="#path-1"></use>
            <use style="mix-blend-mode: luminosity;" xlink:href="#path-1"></use>
        </g>
        <path d="M6.789,215 L6.789,205.364 L62.853,123.239 L12.921,123.239 L12.921,108.566 L85.629,108.566 L85.629,118.202 L29.565,200.327 L87.381,200.327 L87.381,215 L6.789,215 Z M92.083,262.523 C88.7249832,262.523 85.7320131,262.231003 83.104,261.647 C80.4759869,261.062997 78.2130095,260.406004 76.315,259.676 L80.038,246.098 C81.3520066,246.536002 82.8849912,246.937498 84.637,247.3025 C86.3890088,247.667502 88.2139905,247.85 90.112,247.85 C95.3680263,247.85 98.8719912,246.025018 100.624,242.375 C102.376009,238.724982 103.252,233.615033 103.252,227.045 L103.252,108.566 L121.21,108.566 L121.21,227.045 C121.21,237.849054 119.020022,246.462968 114.64,252.887 C110.259978,259.311032 102.741053,262.523 92.083,262.523 Z M112.45,86.666 C108.945982,86.666 105.989512,85.5710109 103.5805,83.381 C101.171488,81.1909891 99.967,78.4170168 99.967,75.059 C99.967,71.5549825 101.171488,68.7445106 103.5805,66.6275 C105.989512,64.5104894 108.945982,63.452 112.45,63.452 C115.808017,63.452 118.691488,64.5104894 121.1005,66.6275 C123.509512,68.7445106 124.714,71.5549825 124.714,75.059 C124.714,78.4170168 123.509512,81.1909891 121.1005,83.381 C118.691488,85.5710109 115.808017,86.666 112.45,86.666 Z M141.126,215 L141.126,108.566 L156.018,108.566 L157.551,123.896 L158.208,123.896 C162.880023,118.785974 167.953473,114.515517 173.4285,111.0845 C178.903527,107.653483 184.852968,105.938 191.277,105.938 C199.453041,105.938 205.840477,107.726482 210.4395,111.3035 C215.038523,114.880518 218.432989,119.880968 220.623,126.305 C226.171028,120.172969 231.755472,115.245519 237.3765,111.5225 C242.997528,107.799481 249.092967,105.938 255.663,105.938 C266.613055,105.938 274.752473,109.441965 280.0815,116.45 C285.410527,123.458035 288.075,133.823931 288.075,147.548 L288.075,215 L270.117,215 L270.117,149.957 C270.117,139.88295 268.511016,132.619522 265.299,128.1665 C262.086984,123.713478 257.123034,121.487 250.407,121.487 C242.37696,121.487 233.471049,126.961945 223.689,137.912 L223.689,215 L205.731,215 L205.731,149.957 C205.731,139.88295 204.125016,132.619522 200.913,128.1665 C197.700984,123.713478 192.664034,121.487 185.802,121.487 C177.77196,121.487 168.866049,126.961945 159.084,137.912 L159.084,215 L141.126,215 Z" id="zjm" fill="#666100" fill-rule="nonzero"></path>
    </g>
</svg>