<?xml version="1.0" encoding="UTF-8"?>
<svg width="68px" height="16px" viewBox="0 0 68 16" version="1.1" xmlns="http://www.w3.org/2000/svg" xmlns:xlink="http://www.w3.org/1999/xlink">
    <!-- Generator: Sketch 53 (72520) - https://sketchapp.com -->
    <title>Logo Color</title>
    <desc>Created with Sketch.</desc>
    <defs>
        <path d="M14.33,6.72 L14.074,7.68 L16.298,7.68 L16.058,6.72 C15.9086659,6.19733072 15.7646674,5.6426696 15.626,5.056 C15.4873326,4.4693304 15.3486674,3.90400272 15.21,3.36 L15.146,3.36 C15.0179994,3.91466944 14.887334,4.48266376 14.754,5.064 C14.620666,5.64533624 14.4793341,6.19733072 14.33,6.72 Z M10.554,12 L13.818,1.568 L16.65,1.568 L19.914,12 L17.418,12 L16.778,9.52 L13.594,9.52 L12.954,12 L10.554,12 Z M19.858,12 L19.858,4.064 L21.778,4.064 L21.938,5.072 L22.002,5.072 C22.343335,4.7519984 22.7166646,4.4720012 23.122,4.232 C23.5273354,3.9919988 24.0019973,3.872 24.546,3.872 C25.4100043,3.872 26.0366647,4.15466384 26.426,4.72 C26.8153353,5.28533616 27.01,6.06932832 27.01,7.072 L27.01,12 L24.658,12 L24.658,7.376 C24.658,6.79999712 24.5806674,6.4053344 24.426,6.192 C24.2713326,5.9786656 24.023335,5.872 23.682,5.872 C23.3833318,5.872 23.1273344,5.938666 22.914,6.072 C22.7006656,6.205334 22.4660013,6.39466544 22.21,6.64 L22.21,12 L19.858,12 Z M30.01,12.192 C29.6473315,12.192 29.3193348,12.1306673 29.026,12.008 C28.7326652,11.8853327 28.4846677,11.7146678 28.282,11.496 C28.0793323,11.2773322 27.9220006,11.0240014 27.81,10.736 C27.6979994,10.4479986 27.642,10.133335 27.642,9.792 C27.642,8.95999584 27.9939965,8.30933568 28.698,7.84 C29.4020035,7.37066432 30.5379922,7.0560008 32.106,6.896 C32.0846666,6.54399824 31.9806676,6.26400104 31.794,6.056 C31.6073324,5.84799896 31.2953355,5.744 30.858,5.744 C30.516665,5.744 30.1780017,5.80799936 29.842,5.936 C29.5059983,6.06400064 29.1460019,6.23999888 28.762,6.464 L27.914,4.912 C28.4260026,4.60266512 28.9619972,4.35200096 29.522,4.16 C30.0820028,3.96799904 30.6766635,3.872 31.306,3.872 C32.3300051,3.872 33.1113306,4.16266376 33.65,4.744 C34.1886694,5.32533624 34.458,6.2293272 34.458,7.456 L34.458,12 L32.538,12 L32.378,11.184 L32.314,11.184 C31.972665,11.4826682 31.6153352,11.7253324 31.242,11.912 C30.8686648,12.0986676 30.4580022,12.192 30.01,12.192 Z M30.81,10.368 C31.076668,10.368 31.305999,10.3093339 31.498,10.192 C31.690001,10.0746661 31.8926656,9.9093344 32.106,9.696 L32.106,8.304 C31.2739958,8.42133392 30.6980016,8.59199888 30.378,8.816 C30.0579984,9.04000112 29.898,9.30666512 29.898,9.616 C29.898,9.87200128 29.9806658,10.0613327 30.146,10.184 C30.3113342,10.3066673 30.5326653,10.368 30.81,10.368 Z M37.602,12.192 C37.1966646,12.192 36.8553347,12.1280006 36.578,12 C36.3006653,11.8719994 36.0793342,11.6933345 35.914,11.464 C35.7486658,11.2346655 35.628667,10.957335 35.554,10.632 C35.479333,10.306665 35.442,9.94133536 35.442,9.536 L35.442,0.784 L37.794,0.784 L37.794,9.632 C37.794,9.87733456 37.8393329,10.0479995 37.93,10.144 C38.0206671,10.2400005 38.1139995,10.288 38.21,10.288 L38.346,10.288 C38.3833335,10.288 38.4339997,10.2773334 38.498,10.256 L38.786,12 C38.6579994,12.0533336 38.4953343,12.0986665 38.298,12.136 C38.1006657,12.1733335 37.868668,12.192 37.602,12.192 Z M39.898,15.104 C39.6526654,15.104 39.4446675,15.0906668 39.274,15.064 C39.1033325,15.0373332 38.9380008,14.9973336 38.778,14.944 L39.194,13.152 C39.268667,13.1733334 39.3539995,13.1946666 39.45,13.216 C39.5460005,13.2373334 39.6366662,13.248 39.722,13.248 C40.1166686,13.248 40.4206656,13.152001 40.634,12.96 C40.8473344,12.767999 41.0073328,12.5173349 41.114,12.208 L41.226,11.792 L38.17,4.064 L40.538,4.064 L41.674,7.472 C41.7913339,7.83466848 41.8979995,8.2026648 41.994,8.576 C42.0900005,8.9493352 42.1913328,9.33333136 42.298,9.728 L42.362,9.728 C42.4473338,9.3546648 42.5353329,8.97866856 42.626,8.6 C42.7166671,8.22133144 42.8099995,7.8453352 42.906,7.472 L43.866,4.064 L46.122,4.064 L43.37,12.08 C43.177999,12.5813358 42.978001,13.0213314 42.77,13.4 C42.561999,13.7786686 42.3220014,14.0933321 42.05,14.344 C41.7779986,14.5946679 41.4686684,14.7839994 41.122,14.912 C40.7753316,15.0400006 40.3673357,15.104 39.898,15.104 Z M49.41,12.192 C48.9193309,12.192 48.5006684,12.1173341 48.154,11.968 C47.8073316,11.8186659 47.5246678,11.610668 47.306,11.344 C47.0873322,11.077332 46.9273338,10.7546686 46.826,10.376 C46.7246662,9.99733144 46.674,9.57866896 46.674,9.12 L46.674,5.904 L45.586,5.904 L45.586,4.16 L46.802,4.064 L47.074,1.952 L49.026,1.952 L49.026,4.064 L50.93,4.064 L50.93,5.904 L49.026,5.904 L49.026,9.088 C49.026,9.53600224 49.1193324,9.85866568 49.306,10.056 C49.4926676,10.2533343 49.7406651,10.352 50.05,10.352 C50.1780006,10.352 50.308666,10.3360002 50.442,10.304 C50.575334,10.2719998 50.6953328,10.2346669 50.802,10.192 L51.17,11.904 C50.9566656,11.9680003 50.7060014,12.0319997 50.418,12.096 C50.1299986,12.1600003 49.7940019,12.192 49.41,12.192 Z M51.482,12 L51.482,4.064 L53.834,4.064 L53.834,12 L51.482,12 Z M52.65,2.896 C52.2553314,2.896 51.9300013,2.78133448 51.674,2.552 C51.4179987,2.32266552 51.29,2.02666848 51.29,1.664 C51.29,1.30133152 51.4179987,1.00800112 51.674,0.784 C51.9300013,0.55999888 52.2553314,0.448 52.65,0.448 C53.0553354,0.448 53.3833321,0.55999888 53.634,0.784 C53.8846679,1.00800112 54.01,1.30133152 54.01,1.664 C54.01,2.02666848 53.8846679,2.32266552 53.634,2.552 C53.3833321,2.78133448 53.0553354,2.896 52.65,2.896 Z M58.354,12.192 C57.7993306,12.192 57.284669,12.0986676 56.81,11.912 C56.335331,11.7253324 55.9220018,11.4560018 55.57,11.104 C55.2179982,10.7519982 54.9406677,10.3173359 54.738,9.8 C54.5353323,9.28266408 54.434,8.69333664 54.434,8.032 C54.434,7.37066336 54.5459989,6.78133592 54.77,6.264 C54.9940011,5.74666408 55.2953314,5.31200176 55.674,4.96 C56.0526686,4.60799824 56.4926642,4.3386676 56.994,4.152 C57.4953358,3.9653324 58.0179973,3.872 58.562,3.872 C59.0526691,3.872 59.4873314,3.9519992 59.866,4.112 C60.2446686,4.2720008 60.5833318,4.47466544 60.882,4.72 L59.778,6.24 C59.4046648,5.93066512 59.047335,5.776 58.706,5.776 C58.1299971,5.776 57.6766683,5.97866464 57.346,6.384 C57.0153317,6.78933536 56.85,7.3386632 56.85,8.032 C56.85,8.7253368 57.0179983,9.27466464 57.354,9.68 C57.6900017,10.0853354 58.1139974,10.288 58.626,10.288 C58.8820013,10.288 59.1299988,10.2320006 59.37,10.12 C59.6100012,10.0079994 59.8366656,9.8720008 60.05,9.712 L60.978,11.248 C60.5833314,11.589335 60.156669,11.8319993 59.698,11.976 C59.239331,12.1200007 58.7913355,12.192 58.354,12.192 Z M63.706,12.192 C63.1833307,12.192 62.6473361,12.0906677 62.098,11.888 C61.5486639,11.6853323 61.0713354,11.4186683 60.666,11.088 L61.722,9.616 C62.0846685,9.89333472 62.4313317,10.1013326 62.762,10.24 C63.0926683,10.3786674 63.428665,10.448 63.77,10.448 C64.1220018,10.448 64.3779992,10.3893339 64.538,10.272 C64.6980008,10.1546661 64.778,9.9893344 64.778,9.776 C64.778,9.64799936 64.7326671,9.53333384 64.642,9.432 C64.5513329,9.33066616 64.4286674,9.23733376 64.274,9.152 C64.1193326,9.06666624 63.946001,8.98933368 63.754,8.92 C63.561999,8.85066632 63.3646677,8.77333376 63.162,8.688 C62.9166654,8.59199952 62.6713346,8.48000064 62.426,8.352 C62.1806654,8.22399936 61.9566677,8.0666676 61.754,7.88 C61.5513323,7.6933324 61.3860006,7.47466792 61.258,7.224 C61.1299994,6.97333208 61.066,6.68266832 61.066,6.352 C61.066,5.98933152 61.1379993,5.65333488 61.282,5.344 C61.4260007,5.03466512 61.631332,4.7733344 61.898,4.56 C62.164668,4.3466656 62.4846648,4.17866728 62.858,4.056 C63.2313352,3.93333272 63.647331,3.872 64.106,3.872 C64.714003,3.872 65.247331,3.97599896 65.706,4.184 C66.164669,4.39200104 66.564665,4.62399872 66.906,4.88 L65.85,6.288 C65.5619986,6.0746656 65.2793347,5.90933392 65.002,5.792 C64.7246653,5.67466608 64.4473347,5.616 64.17,5.616 C63.5726637,5.616 63.274,5.82399792 63.274,6.24 C63.274,6.36800064 63.3166662,6.47733288 63.402,6.568 C63.4873338,6.65866712 63.6019993,6.74133296 63.746,6.816 C63.8900007,6.89066704 64.0553324,6.96266632 64.242,7.032 C64.4286676,7.10133368 64.6233323,7.17333296 64.826,7.248 C65.0820013,7.34400048 65.3353321,7.45333272 65.586,7.576 C65.8366679,7.69866728 66.065999,7.85066576 66.274,8.032 C66.482001,8.21333424 66.6499994,8.43466536 66.778,8.696 C66.9060006,8.95733464 66.97,9.26933152 66.97,9.632 C66.97,9.99466848 66.9006674,10.3306651 66.762,10.64 C66.6233326,10.9493349 66.4153347,11.2186655 66.138,11.448 C65.8606653,11.6773345 65.5193354,11.858666 65.114,11.992 C64.7086646,12.125334 64.239336,12.192 63.706,12.192 Z" id="path-1"></path>
    </defs>
    <g id="Logo-Color" stroke="none" stroke-width="1" fill="none" fill-rule="evenodd">
        <polygon id="Rectangle-Copy-3" fill="#666100" fill-rule="nonzero" points="3.31685612 1.60429382 7.35389191 1.60429382 4.17558075 12 1.46271883e-14 12"></polygon>
        <polygon id="Rectangle-Copy-4" fill="#BFB600" fill-rule="nonzero" points="5.80488576 1.60429382 9.44225416 1.60429382 6.41813607 12 2.5 12"></polygon>
        <polygon id="Rectangle-Copy-5" fill="#EDE100" fill-rule="nonzero" points="8.26153088 1.60429382 10.7588759 1.60429382 7.49734497 12 5 12"></polygon>
        <g id="Analytics" fill-rule="nonzero" fill="#CCC200">
            <use xlink:href="#path-1"></use>
            <use style="mix-blend-mode: luminosity;" xlink:href="#path-1"></use>
        </g>
    </g>
</svg>